HIERARCHY
ROOT Hips
{
	OFFSET 0.00 0.00 0.00
	CHANNELS 6 Xposition Yposition Zposition Xrotation Yrotation Zrotation
	JOINT Spine
	{
		OFFSET 0.00000 5.19526 0.00000
		CHANNELS 3 Xrotation Yrotation Zrotation
		JOINT Head
		{
			OFFSET 0.00000 15.65388 0.00000
			CHANNELS 3 Xrotation Yrotation Zrotation
			End Site
			{
				OFFSET 0.00000 4.52755 0.00000
			}
		}
		JOINT LeftShoulder
		{
			OFFSET 0.00000 10.32977 0.00000
			CHANNELS 3 Xrotation Yrotation Zrotation
			JOINT LeftArm
			{
				OFFSET 6.99601 0.00000 0.00000
				CHANNELS 3 Xrotation Yrotation Zrotation
				JOINT LeftForeArm
				{
					OFFSET 10.20930 0.00000 0.00000
					CHANNELS 3 Yrotation Zrotation Xrotation
					JOINT LeftHand
					{
						OFFSET 8.56316 0.00000 0.00000
						CHANNELS 3 Xrotation Yrotation Zrotation
						JOINT LeftHandThumb1
						{
							OFFSET 0.00000 0.00000 0.00000
							CHANNELS 3 Xrotation Zrotation Yrotation
							End Site
							{
								OFFSET 0.00000 0.00000 3.93700
							}
						}
						End Site
						{
							OFFSET 3.93700 0.00000 0.00000
						}
					}
				}
			}
		}
		JOINT RightShoulder
		{
			OFFSET 0.00000 10.32977 0.00000
			CHANNELS 3 Xrotation Yrotation Zrotation
			JOINT RightArm
			{
				OFFSET -6.99601 0.00000 0.00000
				CHANNELS 3 Xrotation Yrotation Zrotation
				JOINT RightForeArm
				{
					OFFSET -10.20930 0.00000 0.00000
					CHANNELS 3 Yrotation Zrotation Xrotation
					JOINT RightHand
					{
						OFFSET -8.56316 0.00000 0.00000
						CHANNELS 3 Xrotation Yrotation Zrotation
						JOINT RightHandThumb1
						{
							OFFSET 0.00000 0.00000 0.00000
							CHANNELS 3 Xrotation Zrotation Yrotation
							End Site
							{
								OFFSET 0.00000 0.00000 3.93700
							}
						}
						End Site
						{
							OFFSET -3.93700 0.00000 0.00000
						}
					}
				}
			}
		}
	}
	JOINT LeftUpLeg
	{
		OFFSET 3.35136 0.00000 0.00000
		CHANNELS 3 Xrotation Yrotation Zrotation
		JOINT LeftLeg
		{
			OFFSET 0.00000 -16.34683 0.00000
			CHANNELS 3 Xrotation Yrotation Zrotation
			JOINT LeftFoot
			{
				OFFSET 0.00000 -13.95979 0.00000
				CHANNELS 3 Xrotation Yrotation Zrotation
				JOINT LeftToeBase
				{
					OFFSET 0.00000 -1.33694 4.98954
					CHANNELS 3 Xrotation Yrotation Zrotation
					End Site
					{
						OFFSET 0.00000 0.00000 2.95275
					}
				}
			}
		}
	}
	JOINT RightUpLeg
	{
		OFFSET -3.35136 0.00000 0.00000
		CHANNELS 3 Xrotation Yrotation Zrotation
		JOINT RightLeg
		{
			OFFSET 0.00000 -16.34683 0.00000
			CHANNELS 3 Xrotation Yrotation Zrotation
			JOINT RightFoot
			{
				OFFSET 0.00000 -13.95979 0.00000
				CHANNELS 3 Xrotation Yrotation Zrotation
				JOINT RightToeBase
				{
					OFFSET 0.00000 -1.33694 4.98954
					CHANNELS 3 Xrotation Yrotation Zrotation
					End Site
					{
						OFFSET 0.00000 0.00000 2.95275
					}
				}
			}
		}
	}
}
MOTION
Frames: 9
Frame Time: 0.008333
 -8.7090 32.0616 -5.7199 18.0970 1.0430 -7.7800 11.2166 4.9851 2.2083 31.7740 -30.3757 29.9841 5.4431 11.0157 22.0540 -36.6161 19.8996 -76.9926 -147.4928 -0.0000 -33.7696 -0.1305 14.0374 0.5379 33.1476 -0.0000 26.2537 -23.7795 6.9264 -12.7632 -63.9450 45.7158 138.7280 87.2215 0.0000 28.1828 -6.3603 -19.4476 -18.5100 32.8623 0.0000 -24.3270 -24.9378 -1.0482 1.6215 24.5213 -0.0000 0.0000 -23.0446 26.6268 -2.8542 10.6932 -0.0000 -0.0000 -20.3288 -17.9819 -0.4272 23.2382 -0.0000 0.0000 -7.9501 -25.0697 11.3835 -7.5262 -0.0000 -0.0000
 -8.6770 32.0708 -5.7117 18.1062 0.9051 -7.7662 11.2879 4.8230 2.1270 31.7291 -30.1811 29.7922 5.4500 11.0608 21.9694 -36.5380 20.3171 -77.3331 -147.8352 -0.0000 -34.0272 -0.0639 14.0911 0.2625 33.1476 -0.0000 26.2537 -23.7314 6.9748 -12.8527 -64.2438 45.8014 139.0055 87.3674 0.0000 28.1971 -6.3735 -19.3999 -18.5869 32.8623 0.0000 -24.3270 -24.8634 -0.7808 1.6548 24.3702 0.0000 0.0000 -22.9360 26.4986 -2.9993 10.6233 -0.0000 -0.0000 -20.1544 -17.7309 -0.4135 22.8607 0.0000 -0.0000 -7.8230 -25.0175 11.6863 -7.3653 -0.0000 -0.0000
 -8.6443 32.0793 -5.7072 18.1244 0.7415 -7.7457 11.3348 4.7266 2.0531 31.6495 -30.0278 29.5506 5.5613 11.1533 21.8455 -36.6361 20.5784 -77.6297 -148.0594 -0.0000 -34.1778 0.0217 13.9936 -0.0896 33.1476 -0.0000 26.2537 -23.8199 7.0920 -12.9552 -64.3306 45.8317 139.2252 87.4514 0.0000 28.2671 -6.4200 -19.3026 -18.7987 32.8623 0.0000 -24.3270 -24.8113 -0.5722 1.6783 24.2436 0.0000 0.0000 -22.8530 26.4242 -3.1544 10.6128 0.0000 0.0000 -19.9850 -17.4630 -0.3972 22.4589 0.0000 -0.0000 -7.6906 -24.9550 12.0195 -7.1670 -0.0000 -0.0000
 -8.6131 32.0865 -5.6974 18.1154 0.5719 -7.7034 11.3860 4.6612 1.9461 31.5601 -29.8801 29.2963 5.5509 11.1565 21.7709 -36.6381 20.7287 -77.8537 -148.2652 -0.0000 -34.2537 0.0714 13.9372 -0.2964 33.1476 -0.0000 26.2537 -23.7266 7.1591 -13.0509 -64.5264 45.8600 139.3933 87.5371 0.0000 28.3429 -6.4618 -19.2356 -18.9721 32.8623 0.0000 -24.3270 -24.7198 -0.3578 1.6830 24.1153 0.0000 -0.0000 -22.7779 26.3956 -3.3694 10.5628 0.0000 -0.0000 -19.8007 -17.2147 -0.4083 22.0803 -0.0000 -0.0000 -7.5627 -24.8782 12.1432 -7.4705 -0.0000 -0.0000
 -8.5835 32.0930 -5.6899 18.1205 0.3791 -7.6530 11.4077 4.6636 1.8217 31.4483 -29.7463 29.0691 5.5697 11.1478 21.6990 -36.7476 20.7656 -78.0470 -148.4097 -0.0000 -34.2596 0.1142 13.9000 -0.4752 33.1476 -0.0000 26.2537 -23.4962 7.1491 -13.1584 -64.8938 45.8836 139.5353 87.5698 0.0000 28.3028 -6.5632 -19.1544 -19.3231 32.8623 0.0000 -24.3270 -24.6513 -0.1672 1.7024 24.0006 -0.0000 0.0000 -22.7097 26.2999 -3.5164 10.5923 -0.0000 -0.0000 -19.6214 -16.9824 -0.4148 21.6770 -0.0000 0.0000 -7.4643 -24.7263 12.4343 -7.0654 -0.0000 0.0000
 -8.5527 32.0987 -5.6814 18.1186 0.1910 -7.5683 11.4293 4.6699 1.6821 31.2769 -29.6483 28.7649 5.5295 11.0857 21.6088 -36.9418 20.8092 -78.1398 -148.5441 -0.0000 -34.3644 0.1354 14.2108 -0.5518 33.1476 -0.0000 26.2537 -23.5642 7.2331 -13.2564 -64.9122 45.8441 139.6761 87.5252 0.0000 28.2470 -6.7279 -18.9895 -19.9273 32.8623 0.0000 -24.3270 -24.5739 0.0076 1.6678 23.8972 0.0000 0.0000 -22.6675 26.2612 -3.5531 10.6002 -0.0000 0.0000 -19.4535 -16.7793 -0.4687 21.2933 0.0000 0.0000 -7.3684 -24.5585 12.7838 -6.9236 0.0000 0.0000
 -8.5273 32.1038 -5.6712 18.0981 0.0058 -7.5091 11.4590 4.7223 1.5581 31.0717 -29.5385 28.4748 5.5745 11.1284 21.5488 -37.1022 20.5124 -78.3218 -148.5540 -0.0000 -34.1097 0.1032 14.0021 -0.4265 33.1476 -0.0000 26.2537 -23.7815 7.3426 -13.3449 -64.6986 45.7632 139.7390 87.4850 0.0000 28.3028 -6.8431 -18.9324 -20.2980 32.8623 0.0000 -24.3270 -24.4754 0.1385 1.6635 23.7866 -0.0000 0.0000 -22.5855 26.2525 -3.7483 10.5963 -0.0000 0.0000 -19.2415 -16.5961 -0.4825 20.8829 0.0000 -0.0000 -7.2933 -24.4220 13.0215 -6.6218 0.0000 0.0000
 -8.4987 32.1078 -5.6607 18.0899 -0.1866 -7.4100 11.4530 4.7598 1.4183 30.8399 -29.3983 28.1144 5.5598 11.0776 21.4961 -37.3046 20.3734 -78.3828 -148.5802 -0.0000 -33.9813 0.1463 14.1549 -0.5981 33.1476 -0.0000 26.2537 -23.7591 7.4321 -13.4297 -64.7609 45.7237 139.7782 87.3737 0.0000 28.4798 -7.0464 -18.8621 -20.9236 32.8623 0.0000 -24.3270 -24.3952 0.3006 1.6164 23.6971 -0.0000 -0.0000 -22.5354 26.2137 -3.9000 10.6878 0.0000 -0.0000 -19.0569 -16.4420 -0.5508 20.4834 -0.0000 0.0000 -7.2647 -24.2048 13.2282 -6.4657 0.0000 0.0000
 -8.4738 32.1098 -5.6515 18.0643 -0.3712 -7.3088 11.4494 4.8513 1.2724 30.6595 -29.3366 27.8047 5.3465 10.8007 21.5742 -37.1934 20.3143 -78.4000 -148.6181 -0.0000 -33.7540 0.0903 14.3495 -0.3642 33.1476 -0.0000 26.2537 -23.7501 7.5115 -13.5053 -64.7078 45.6323 139.7603 87.2506 0.0000 28.8050 -7.3610 -18.9425 -21.7006 32.8623 0.0000 -24.3270 -24.3082 0.4454 1.5646 23.6199 -0.0000 0.0000 -22.4831 26.1957 -3.9873 10.7031 -0.0000 0.0000 -18.8556 -16.2599 -0.6118 20.0909 0.0000 0.0000 -7.2351 -23.9857 13.3918 -6.2763 -0.0000 0.0000
